<svg width="97" height="23" viewBox="0 0 97 23" fill="none" xmlns="http://www.w3.org/2000/svg">
<path d="M32.3251 21.7535C32.1458 22.2758 31.5527 22.6993 31.0004 22.6993H16.0004C18.1526 16.431 27.0607 11.3496 35.8973 11.3496C27.0607 11.3496 21.642 6.26823 23.7942 0C21.642 6.26823 12.7339 11.3496 3.8973 11.3496C12.7339 11.3496 18.1526 16.431 16.0004 22.6993H1.00039C0.448101 22.6993 0.145778 22.2758 0.325129 21.7535L7.46947 0.945803C7.64882 0.423451 8.24193 0 8.79422 0H38.7942C39.3465 0 39.6488 0.42345 39.4695 0.945802L32.3251 21.7535Z" fill="#FAB43F"/>
<path d="M48.4062 18C48.2262 18 48.1362 17.934 48.1362 17.802C48.1362 17.694 48.2142 17.622 48.3702 17.586L48.7842 17.514C49.0362 17.466 49.1982 17.4 49.2702 17.316C49.3542 17.232 49.3962 17.064 49.3962 16.812V6.228C49.3962 5.976 49.3542 5.808 49.2702 5.724C49.1982 5.64 49.0362 5.574 48.7842 5.526L48.3702 5.454C48.2142 5.418 48.1362 5.346 48.1362 5.238C48.1362 5.106 48.2262 5.04 48.4062 5.04H54.4542C54.7302 5.04 54.8802 5.178 54.9042 5.454L55.0482 8.442C55.0722 8.646 54.9942 8.748 54.8142 8.748C54.6702 8.748 54.5862 8.67 54.5622 8.514L54.4542 7.848C54.3222 7.032 54.0522 6.438 53.6442 6.066C53.2362 5.682 52.6722 5.49 51.9522 5.49C51.4722 5.49 51.1362 5.562 50.9442 5.706C50.7642 5.838 50.6742 6.078 50.6742 6.426V10.764C50.6742 10.932 50.7582 11.016 50.9262 11.016H51.8262C52.3542 11.016 52.6782 10.734 52.7982 10.17L52.9782 9.27C53.0262 9.09 53.1282 9.012 53.2842 9.036C53.4162 9.06 53.4822 9.162 53.4822 9.342V13.392C53.4822 13.572 53.4162 13.674 53.2842 13.698C53.1282 13.722 53.0262 13.644 52.9782 13.464L52.7982 12.582C52.7142 12.162 52.5942 11.886 52.4382 11.754C52.2942 11.622 52.0842 11.556 51.8082 11.556H50.9262C50.7582 11.556 50.6742 11.64 50.6742 11.808V16.326C50.6742 16.758 50.7822 17.07 50.9982 17.262C51.2262 17.454 51.6342 17.55 52.2222 17.55C52.8222 17.55 53.3322 17.4 53.7522 17.1C54.1842 16.788 54.4842 16.212 54.6522 15.372L54.8682 14.31C54.9042 14.154 54.9942 14.076 55.1382 14.076C55.3062 14.076 55.3782 14.178 55.3542 14.382L55.1742 17.586C55.1502 17.862 55.0002 18 54.7242 18H48.4062Z" fill="#FAB43F"/>
<path d="M59.1905 18.162C58.6625 18.162 58.1825 17.988 57.7505 17.64C57.3305 17.28 56.9945 16.77 56.7425 16.11C56.4905 15.45 56.3645 14.664 56.3645 13.752C56.3645 12.732 56.5145 11.844 56.8145 11.088C57.1265 10.332 57.5465 9.75 58.0745 9.342C58.6025 8.922 59.1905 8.712 59.8385 8.712C60.3905 8.712 60.8225 8.82 61.1345 9.036C61.2545 9.12 61.3145 9.252 61.3145 9.432L61.3505 11.628C61.3505 11.808 61.2785 11.898 61.1345 11.898C61.0025 11.898 60.9185 11.82 60.8825 11.664C60.7145 11.004 60.5525 10.494 60.3965 10.134C60.2405 9.774 60.0785 9.528 59.9105 9.396C59.7425 9.252 59.5565 9.18 59.3525 9.18C59.1125 9.18 58.8605 9.318 58.5965 9.594C58.3445 9.87 58.1285 10.32 57.9485 10.944C57.7805 11.556 57.6965 12.366 57.6965 13.374C57.6965 14.658 57.8585 15.624 58.1825 16.272C58.5185 16.92 58.9505 17.244 59.4785 17.244C59.8985 17.244 60.2465 17.07 60.5225 16.722C60.8105 16.374 61.0565 15.744 61.2605 14.832C61.2965 14.7 61.3685 14.634 61.4765 14.634C61.6205 14.634 61.6745 14.754 61.6385 14.994C61.5065 15.834 61.3205 16.488 61.0805 16.956C60.8525 17.412 60.5765 17.73 60.2525 17.91C59.9405 18.078 59.5865 18.162 59.1905 18.162Z" fill="#FAB43F"/>
<path d="M62.5361 18C62.3921 18 62.3201 17.934 62.3201 17.802C62.3201 17.682 62.3861 17.61 62.5181 17.586L62.7701 17.55C63.0221 17.514 63.1841 17.442 63.2561 17.334C63.3401 17.226 63.3821 17.046 63.3821 16.794V6.48C63.3821 6.264 63.3461 6.12 63.2741 6.048C63.2141 5.964 63.1001 5.91 62.9321 5.886L62.5541 5.832C62.4221 5.808 62.3561 5.736 62.3561 5.616C62.3561 5.496 62.4221 5.424 62.5541 5.4C62.8901 5.328 63.1721 5.244 63.4001 5.148C63.6281 5.052 63.8201 4.956 63.9761 4.86C64.1681 4.74 64.3121 4.68 64.4081 4.68C64.5401 4.68 64.6061 4.776 64.6061 4.968V9.738C64.6061 9.846 64.6421 9.912 64.7141 9.936C64.7861 9.948 64.8761 9.906 64.9841 9.81C65.4401 9.39 65.8421 9.102 66.1901 8.946C66.5381 8.79 66.9041 8.712 67.2881 8.712C67.8521 8.712 68.2961 8.904 68.6201 9.288C68.9441 9.66 69.1061 10.212 69.1061 10.944V16.794C69.1061 17.046 69.1421 17.226 69.2141 17.334C69.2981 17.43 69.4661 17.496 69.7181 17.532L70.1141 17.586C70.2461 17.61 70.3121 17.682 70.3121 17.802C70.3121 17.934 70.2401 18 70.0961 18H67.0721C66.9041 18 66.8201 17.934 66.8201 17.802C66.8201 17.682 66.8861 17.61 67.0181 17.586L67.2701 17.55C67.5221 17.514 67.6841 17.442 67.7561 17.334C67.8401 17.226 67.8821 17.046 67.8821 16.794V11.142C67.8821 10.554 67.7741 10.14 67.5581 9.9C67.3421 9.66 67.0361 9.54 66.6401 9.54C66.2561 9.54 65.9081 9.654 65.5961 9.882C65.2961 10.098 65.0561 10.392 64.8761 10.764C64.6961 11.124 64.6061 11.526 64.6061 11.97V16.794C64.6061 17.046 64.6421 17.226 64.7141 17.334C64.7981 17.442 64.9661 17.508 65.2181 17.532L65.7041 17.586C65.8361 17.61 65.9021 17.682 65.9021 17.802C65.9021 17.934 65.8301 18 65.6861 18H62.5361Z" fill="#FAB43F"/>
<path d="M74.1592 18.162C73.5472 18.162 72.9952 17.958 72.5032 17.55C72.0232 17.13 71.6392 16.56 71.3512 15.84C71.0632 15.12 70.9192 14.316 70.9192 13.428C70.9192 12.54 71.0632 11.742 71.3512 11.034C71.6392 10.326 72.0292 9.762 72.5212 9.342C73.0132 8.922 73.5592 8.712 74.1592 8.712C74.7712 8.712 75.3172 8.922 75.7972 9.342C76.2892 9.762 76.6792 10.326 76.9672 11.034C77.2552 11.742 77.3992 12.54 77.3992 13.428C77.3992 14.316 77.2552 15.12 76.9672 15.84C76.6912 16.56 76.3072 17.13 75.8152 17.55C75.3232 17.958 74.7712 18.162 74.1592 18.162ZM74.1592 17.712C75.4072 17.712 76.0312 16.284 76.0312 13.428C76.0312 10.584 75.4072 9.162 74.1592 9.162C72.9112 9.162 72.2872 10.584 72.2872 13.428C72.2872 16.284 72.9112 17.712 74.1592 17.712Z" fill="#FAB43F"/>
<path d="M78.2128 18C78.0688 18 77.9968 17.934 77.9968 17.802C77.9968 17.682 78.0628 17.61 78.1948 17.586L78.4468 17.55C78.6988 17.514 78.8848 17.442 79.0048 17.334C79.1248 17.226 79.1848 17.046 79.1848 16.794V6.48C79.1848 6.264 79.1488 6.114 79.0768 6.03C79.0168 5.946 78.9028 5.898 78.7348 5.886L78.3208 5.832C78.1888 5.808 78.1228 5.736 78.1228 5.616C78.1228 5.496 78.1888 5.424 78.3208 5.4C78.6568 5.328 78.9448 5.244 79.1848 5.148C79.4248 5.052 79.6228 4.956 79.7788 4.86C79.9708 4.74 80.1148 4.68 80.2108 4.68C80.3428 4.68 80.4088 4.776 80.4088 4.968V16.794C80.4088 17.046 80.4448 17.226 80.5168 17.334C80.6008 17.43 80.7688 17.496 81.0208 17.532L81.4348 17.586C81.5668 17.61 81.6328 17.682 81.6328 17.802C81.6328 17.934 81.5608 18 81.4168 18H78.2128Z" fill="#FAB43F"/>
<path d="M84.8859 18.162C84.5859 18.162 84.2979 18.096 84.0219 17.964C83.7459 17.832 83.5179 17.622 83.3379 17.334C83.1579 17.046 83.0679 16.662 83.0679 16.182V9.918C83.0679 9.702 83.0319 9.552 82.9599 9.468C82.8999 9.384 82.7859 9.336 82.6179 9.324L82.3119 9.288C82.1079 9.264 82.0059 9.186 82.0059 9.054C82.0059 8.898 82.1199 8.82 82.3479 8.82H84.0219C84.2019 8.82 84.2919 8.91 84.2919 9.09V15.804C84.2919 16.356 84.3939 16.752 84.5979 16.992C84.8139 17.22 85.1079 17.334 85.4799 17.334C85.8519 17.334 86.1819 17.232 86.4699 17.028C86.7579 16.812 86.9859 16.53 87.1539 16.182C87.3339 15.822 87.4239 15.432 87.4239 15.012V9.918C87.4239 9.702 87.3879 9.552 87.3159 9.468C87.2559 9.384 87.1419 9.336 86.9739 9.324L86.6679 9.288C86.4639 9.264 86.3619 9.186 86.3619 9.054C86.3619 8.898 86.4759 8.82 86.7039 8.82H88.3779C88.5579 8.82 88.6479 8.91 88.6479 9.09V16.074C88.6479 16.29 88.6779 16.44 88.7379 16.524C88.8099 16.596 88.9299 16.644 89.0979 16.668L89.4759 16.722C89.6319 16.734 89.7099 16.794 89.7099 16.902C89.7099 17.01 89.6139 17.082 89.4219 17.118C89.0499 17.166 88.7499 17.262 88.5219 17.406C88.3059 17.55 88.1139 17.724 87.9459 17.928C87.8379 18.036 87.7479 18.09 87.6759 18.09C87.5679 18.09 87.5139 18.018 87.5139 17.874V17.046C87.5139 16.95 87.4779 16.896 87.4059 16.884C87.3459 16.86 87.2799 16.884 87.2079 16.956C86.7639 17.4 86.3679 17.712 86.0199 17.892C85.6839 18.072 85.3059 18.162 84.8859 18.162Z" fill="#FAB43F"/>
<path d="M94.0677 18C93.8997 18 93.8157 17.94 93.8157 17.82C93.8157 17.7 93.8937 17.622 94.0497 17.586L94.3197 17.532C94.6797 17.448 94.7757 17.25 94.6077 16.938L93.3297 14.418C93.2817 14.334 93.2217 14.292 93.1497 14.292C93.0897 14.28 93.0357 14.322 92.9877 14.418L91.8177 16.614C91.5537 17.118 91.5957 17.406 91.9437 17.478L92.4117 17.586C92.5677 17.622 92.6457 17.7 92.6457 17.82C92.6457 17.94 92.5617 18 92.3937 18H90.0897C89.9217 18 89.8377 17.934 89.8377 17.802C89.8377 17.67 89.9097 17.586 90.0537 17.55L90.2697 17.496C90.4977 17.436 90.6897 17.346 90.8457 17.226C91.0017 17.094 91.1997 16.806 91.4397 16.362L92.7717 13.914C92.8677 13.734 92.8797 13.56 92.8077 13.392L91.0977 10.026C90.9657 9.75 90.8517 9.564 90.7557 9.468C90.6717 9.372 90.5697 9.312 90.4497 9.288L90.1797 9.234C90.0237 9.198 89.9457 9.12 89.9457 9C89.9457 8.88 90.0297 8.82 90.1977 8.82H92.8617C93.0297 8.82 93.1137 8.88 93.1137 9C93.1137 9.12 93.0357 9.198 92.8797 9.234L92.6097 9.288C92.2497 9.372 92.1537 9.57 92.3217 9.882L93.5457 12.258C93.5937 12.342 93.6477 12.384 93.7077 12.384C93.7677 12.384 93.8217 12.342 93.8697 12.258L94.9497 10.206C95.2137 9.702 95.1717 9.414 94.8237 9.342L94.3557 9.234C94.1997 9.198 94.1217 9.12 94.1217 9C94.1217 8.88 94.2057 8.82 94.3737 8.82H96.6777C96.8457 8.82 96.9297 8.886 96.9297 9.018C96.9297 9.15 96.8577 9.234 96.7137 9.27L96.4977 9.324C96.2697 9.372 96.0777 9.462 95.9217 9.594C95.7657 9.714 95.5677 10.002 95.3277 10.458L94.0857 12.762C93.9777 12.942 93.9717 13.128 94.0677 13.32L95.8317 16.794C95.9757 17.082 96.0897 17.274 96.1737 17.37C96.2577 17.454 96.3597 17.508 96.4797 17.532L96.7497 17.586C96.9057 17.622 96.9837 17.7 96.9837 17.82C96.9837 17.94 96.8997 18 96.7317 18H94.0677Z" fill="#FAB43F"/>
</svg>
